<svg width="720" height="220" viewBox="0 0 720 220" fill="none" xmlns="http://www.w3.org/2000/svg" role="img" aria-labelledby="title desc">
  <title id="title">ifURI logo</title>
  <desc id="desc">ifURI logo with circular routing mark and wordmark</desc>
  <defs>
    <linearGradient id="g1" x1="64" y1="34" x2="178" y2="172" gradientUnits="userSpaceOnUse">
      <stop offset="0" stop-color="#8CFB9F"/>
      <stop offset="0.48" stop-color="#2AD7FF"/>
      <stop offset="1" stop-color="#7A5CFF"/>
    </linearGradient>
    <linearGradient id="g2" x1="271" y1="50" x2="594" y2="170" gradientUnits="userSpaceOnUse">
      <stop offset="0" stop-color="#FFFFFF"/>
      <stop offset="0.55" stop-color="#DDEBFF"/>
      <stop offset="1" stop-color="#A9FFCB"/>
    </linearGradient>
    <filter id="glow" x="-20%" y="-20%" width="140%" height="140%">
      <feGaussianBlur stdDeviation="8" result="blur"/>
      <feColorMatrix in="blur" type="matrix" values="0 0 0 0 0.12 0 0 0 0 0.88 0 0 0 0 1 0 0 0 .55 0"/>
      <feBlend in="SourceGraphic" mode="screen"/>
    </filter>
  </defs>
  <rect width="720" height="220" rx="42" fill="#08111F"/>
  <g filter="url(#glow)">
    <path d="M112 33c42 0 76 34 76 76 0 19-7 36-18 49" stroke="url(#g1)" stroke-width="16" stroke-linecap="round"/>
    <path d="M112 185c-42 0-76-34-76-76 0-19 7-36 18-49" stroke="url(#g1)" stroke-width="16" stroke-linecap="round" opacity=".66"/>
    <path d="M57 115h72" stroke="#EAF6FF" stroke-width="10" stroke-linecap="round"/>
    <path d="M121 82l33 33-33 33" stroke="#8CFB9F" stroke-width="10" stroke-linecap="round" stroke-linejoin="round"/>
    <circle cx="82" cy="83" r="13" fill="#EAF6FF"/>
    <path d="M79 105h17l-18 52h-17l18-52z" fill="#EAF6FF"/>
  </g>
  <text x="236" y="126" font-family="Inter, ui-sans-serif, system-ui, -apple-system, Segoe UI, Arial" font-size="76" font-weight="850" letter-spacing="-3" fill="url(#g2)">ifURI</text>
  <text x="241" y="163" font-family="Inter, ui-sans-serif, system-ui, -apple-system, Segoe UI, Arial" font-size="18" font-weight="600" letter-spacing="2.2" fill="#90A7C2">IF URI → THEN FLOW</text>
</svg>
